<svg xmlns="http://www.w3.org/2000/svg" viewBox="0 0 400 400" width="100%" height="100%">
  <rect width="100%" height="100%" fill="#ffffff" rx="16"/>
  <!-- Top Left Finder -->
  <rect x="30" y="30" width="80" height="80" fill="#0b0f19" rx="8"/>
  <rect x="42" y="42" width="56" height="56" fill="#ffffff" rx="4"/>
  <rect x="54" y="54" width="32" height="32" fill="#f97316" rx="4"/>
  
  <!-- Top Right Finder -->
  <rect x="290" y="30" width="80" height="80" fill="#0b0f19" rx="8"/>
  <rect x="302" y="42" width="56" height="56" fill="#ffffff" rx="4"/>
  <rect x="314" y="54" width="32" height="32" fill="#f97316" rx="4"/>
  
  <!-- Bottom Left Finder -->
  <rect x="30" y="290" width="80" height="80" fill="#0b0f19" rx="8"/>
  <rect x="42" y="302" width="56" height="56" fill="#ffffff" rx="4"/>
  <rect x="54" y="314" width="32" height="32" fill="#f97316" rx="4"/>
  
  <!-- QR Pattern Grid -->
  <g fill="#0b0f19">
    <rect x="130" y="35" width="16" height="16" rx="2"/>
    <rect x="160" y="35" width="32" height="16" rx="2"/>
    <rect x="210" y="35" width="16" height="16" rx="2"/>
    <rect x="245" y="35" width="25" height="16" rx="2"/>
    
    <rect x="130" y="65" width="32" height="16" rx="2"/>
    <rect x="180" y="65" width="16" height="16" rx="2"/>
    <rect x="210" y="65" width="40" height="16" rx="2"/>
    
    <rect x="130" y="95" width="16" height="24" rx="2"/>
    <rect x="160" y="95" width="24" height="16" rx="2"/>
    <rect x="200" y="95" width="16" height="16" rx="2"/>
    <rect x="230" y="95" width="30" height="16" rx="2"/>
    
    <rect x="35" y="130" width="24" height="16" rx="2"/>
    <rect x="75" y="130" width="16" height="32" rx="2"/>
    <rect x="110" y="130" width="24" height="16" rx="2"/>
    <rect x="150" y="130" width="35" height="24" rx="2"/>
    <rect x="200" y="130" width="16" height="16" rx="2"/>
    <rect x="235" y="130" width="40" height="16" rx="2"/>
    <rect x="295" y="130" width="20" height="35" rx="2"/>
    <rect x="335" y="130" width="30" height="16" rx="2"/>
    
    <rect x="35" y="165" width="32" height="20" rx="2"/>
    <rect x="110" y="165" width="16" height="35" rx="2"/>
    <rect x="140" y="170" width="24" height="16" rx="2"/>
    <rect x="180" y="165" width="40" height="20" rx="2"/>
    <rect x="240" y="165" width="16" height="30" rx="2"/>
    <rect x="275" y="165" width="35" height="16" rx="2"/>
    <rect x="330" y="165" width="35" height="24" rx="2"/>
    
    <rect x="35" y="200" width="20" height="35" rx="2"/>
    <rect x="70" y="200" width="25" height="20" rx="2"/>
    <rect x="140" y="205" width="32" height="16" rx="2"/>
    <rect x="190" y="200" width="24" height="20" rx="2"/>
    <rect x="230" y="210" width="20" height="25" rx="2"/>
    <rect x="270" y="200" width="16" height="35" rx="2"/>
    <rect x="305" y="205" width="40" height="20" rx="2"/>
    
    <rect x="35" y="250" width="35" height="20" rx="2"/>
    <rect x="90" y="245" width="30" height="25" rx="2"/>
    <rect x="140" y="240" width="20" height="40" rx="2"/>
    <rect x="180" y="240" width="35" height="20" rx="2"/>
    <rect x="235" y="245" width="40" height="16" rx="2"/>
    <rect x="295" y="245" width="25" height="35" rx="2"/>
    <rect x="340" y="250" width="25" height="20" rx="2"/>
    
    <rect x="130" y="295" width="30" height="20" rx="2"/>
    <rect x="175" y="290" width="20" height="35" rx="2"/>
    <rect x="210" y="300" width="35" height="20" rx="2"/>
    <rect x="260" y="295" width="16" height="25" rx="2"/>
    <rect x="295" y="300" width="40" height="16" rx="2"/>
    <rect x="350" y="290" width="20" height="40" rx="2"/>
    
    <rect x="130" y="335" width="45" height="25" rx="2"/>
    <rect x="190" y="340" width="30" height="20" rx="2"/>
    <rect x="235" y="335" width="20" height="30" rx="2"/>
    <rect x="270" y="340" width="45" height="20" rx="2"/>
    <rect x="330" y="345" width="35" height="20" rx="2"/>
  </g>
  
  <!-- Center Logo Badge -->
  <rect x="165" y="165" width="70" height="70" fill="#ffffff" rx="16" stroke="#f97316" stroke-width="3"/>
  <text x="200" y="208" fill="#f97316" font-family="'Inter', sans-serif" font-weight="900" font-size="24" text-anchor="middle">BT</text>
</svg>